<svg width="100" height="100" viewBox="0 0 100 100" fill="none" xmlns="http://www.w3.org/2000/svg">
<path d="M50 8.73056C22.3861 8.73056 0 27.9194 0 51.5861C0 54.5472 0.35 57.4389 1.01944 60.2306C5.96111 68.7333 9.38055 63.3667 25 55.5556C40.9083 47.6 25 66.6667 19.4444 77.7778C17.7361 81.1944 18.6611 84.0861 21 86.4556C29.1833 91.4667 39.1778 94.4444 50 94.4444C77.6139 94.4444 100 75.2583 100 51.5861C100 27.9194 77.6139 8.73056 50 8.73056ZM57.9139 76.6389C56.8167 80.3778 51.0806 81.9833 45.1 80.225C39.1194 78.4694 35.1611 74.0194 36.2583 70.2778C37.3556 66.5389 43.0917 64.9333 49.0722 66.6944C55.0528 68.4472 59.0111 72.8972 57.9139 76.6389Z" fill="#064E3B"/>
<path d="M27.7777 38.8889C32.38 38.8889 36.111 35.1579 36.111 30.5556C36.111 25.9532 32.38 22.2222 27.7777 22.2222C23.1753 22.2222 19.4443 25.9532 19.4443 30.5556C19.4443 35.1579 23.1753 38.8889 27.7777 38.8889Z" fill="#10B981"/>
<path d="M55.5555 33.3333C60.1579 33.3333 63.8888 29.6024 63.8888 25C63.8888 20.3976 60.1579 16.6667 55.5555 16.6667C50.9531 16.6667 47.2222 20.3976 47.2222 25C47.2222 29.6024 50.9531 33.3333 55.5555 33.3333Z" fill="#34D399"/>
<path d="M80.5555 50C85.1579 50 88.8888 46.269 88.8888 41.6667C88.8888 37.0643 85.1579 33.3333 80.5555 33.3333C75.9531 33.3333 72.2222 37.0643 72.2222 41.6667C72.2222 46.269 75.9531 50 80.5555 50Z" fill="#6EE7B7"/>
<path d="M77.7777 75C82.38 75 86.111 71.269 86.111 66.6667C86.111 62.0643 82.38 58.3333 77.7777 58.3333C73.1753 58.3333 69.4443 62.0643 69.4443 66.6667C69.4443 71.269 73.1753 75 77.7777 75Z" fill="#A7F3D0"/>
</svg>
